<mxfile host="Electron" modified="2023-08-10T09:01:50.205Z" agent="Mozilla/5.0 (X11; Linux x86_64) AppleWebKit/537.36 (KHTML, like Gecko) draw.io/21.6.5 Chrome/114.0.5735.243 Electron/25.3.1 Safari/537.36" etag="JuunGw2z_kB91N3cIoRP" version="21.6.5" type="device">
  <diagram name="Strona-1" id="FpE6mSQgbO2Cne23P6YO">
    <mxGraphModel dx="1424" dy="2005" grid="1" gridSize="10" guides="1" tooltips="1" connect="1" arrows="1" fold="1" page="1" pageScale="1" pageWidth="827" pageHeight="1169" math="0" shadow="0">
      <root>
        <mxCell id="0" />
        <mxCell id="1" parent="0" />
        <mxCell id="5vtchUX7IS7G1YuMAPSC-20" value="Presentation Layer" style="swimlane;whiteSpace=wrap;html=1;startSize=40;fillColor=#f5f5f5;fontColor=#333333;strokeColor=#666666;" vertex="1" parent="1">
          <mxGeometry x="30" y="300" width="200" height="150" as="geometry">
            <mxRectangle x="30" y="430" width="150" height="30" as="alternateBounds" />
          </mxGeometry>
        </mxCell>
        <mxCell id="5vtchUX7IS7G1YuMAPSC-17" value="Aplication" style="rounded=0;whiteSpace=wrap;html=1;fillColor=#a20025;strokeColor=#6F0000;fontColor=#ffffff;" vertex="1" parent="5vtchUX7IS7G1YuMAPSC-20">
          <mxGeometry x="40" y="60" width="120" height="60" as="geometry" />
        </mxCell>
        <mxCell id="5vtchUX7IS7G1YuMAPSC-22" value="Infrasctructure Layer" style="swimlane;whiteSpace=wrap;html=1;startSize=40;fillColor=#f5f5f5;fontColor=#333333;strokeColor=#666666;" vertex="1" parent="1">
          <mxGeometry x="30" y="490" width="200" height="220" as="geometry">
            <mxRectangle x="30" y="430" width="150" height="30" as="alternateBounds" />
          </mxGeometry>
        </mxCell>
        <mxCell id="5vtchUX7IS7G1YuMAPSC-23" value="Configuration" style="rounded=0;whiteSpace=wrap;html=1;fillColor=#e3c800;fontColor=#000000;strokeColor=#B09500;" vertex="1" parent="5vtchUX7IS7G1YuMAPSC-22">
          <mxGeometry x="40" y="60" width="120" height="60" as="geometry" />
        </mxCell>
        <mxCell id="5vtchUX7IS7G1YuMAPSC-53" value="DbsConfigs&lt;br&gt;(JSON File)" style="rounded=0;whiteSpace=wrap;html=1;container=0;fillColor=#e3c800;fontColor=#000000;strokeColor=#B09500;" vertex="1" parent="5vtchUX7IS7G1YuMAPSC-22">
          <mxGeometry x="40" y="140" width="120" height="60" as="geometry" />
        </mxCell>
        <mxCell id="5vtchUX7IS7G1YuMAPSC-24" value="Config Request" style="text;html=1;strokeColor=none;fillColor=none;align=center;verticalAlign=middle;whiteSpace=wrap;rounded=0;" vertex="1" parent="1">
          <mxGeometry x="130" y="450" width="100" height="40" as="geometry" />
        </mxCell>
        <mxCell id="5vtchUX7IS7G1YuMAPSC-36" style="edgeStyle=orthogonalEdgeStyle;rounded=0;orthogonalLoop=1;jettySize=auto;html=1;entryX=0.5;entryY=1;entryDx=0;entryDy=0;" edge="1" parent="1" source="5vtchUX7IS7G1YuMAPSC-25" target="5vtchUX7IS7G1YuMAPSC-33">
          <mxGeometry relative="1" as="geometry" />
        </mxCell>
        <mxCell id="5vtchUX7IS7G1YuMAPSC-54" style="edgeStyle=orthogonalEdgeStyle;rounded=0;orthogonalLoop=1;jettySize=auto;html=1;entryX=1;entryY=0.75;entryDx=0;entryDy=0;" edge="1" parent="1" target="5vtchUX7IS7G1YuMAPSC-22">
          <mxGeometry relative="1" as="geometry">
            <mxPoint x="330" y="655" as="sourcePoint" />
          </mxGeometry>
        </mxCell>
        <mxCell id="5vtchUX7IS7G1YuMAPSC-25" value="Application Layer" style="swimlane;whiteSpace=wrap;html=1;startSize=40;fillColor=#f5f5f5;fontColor=#333333;strokeColor=#666666;" vertex="1" parent="1">
          <mxGeometry x="330" y="300" width="450" height="460" as="geometry">
            <mxRectangle x="30" y="430" width="150" height="30" as="alternateBounds" />
          </mxGeometry>
        </mxCell>
        <mxCell id="5vtchUX7IS7G1YuMAPSC-26" value="IApplicationService" style="rounded=0;whiteSpace=wrap;html=1;fillColor=#6a00ff;fontColor=#ffffff;strokeColor=#3700CC;" vertex="1" parent="5vtchUX7IS7G1YuMAPSC-25">
          <mxGeometry x="100" y="60" width="140" height="80" as="geometry" />
        </mxCell>
        <mxCell id="5vtchUX7IS7G1YuMAPSC-71" value="" style="edgeStyle=orthogonalEdgeStyle;rounded=0;orthogonalLoop=1;jettySize=auto;html=1;entryX=0;entryY=0.5;entryDx=0;entryDy=0;exitX=1;exitY=0.5;exitDx=0;exitDy=0;" edge="1" parent="5vtchUX7IS7G1YuMAPSC-25" source="5vtchUX7IS7G1YuMAPSC-72" target="5vtchUX7IS7G1YuMAPSC-70">
          <mxGeometry relative="1" as="geometry" />
        </mxCell>
        <mxCell id="5vtchUX7IS7G1YuMAPSC-57" value="IDbBackupService" style="rounded=0;whiteSpace=wrap;html=1;fillColor=#6a00ff;fontColor=#ffffff;strokeColor=#3700CC;" vertex="1" parent="5vtchUX7IS7G1YuMAPSC-25">
          <mxGeometry x="100" y="220" width="140" height="80" as="geometry" />
        </mxCell>
        <mxCell id="5vtchUX7IS7G1YuMAPSC-67" value="" style="edgeStyle=orthogonalEdgeStyle;rounded=0;orthogonalLoop=1;jettySize=auto;html=1;" edge="1" parent="5vtchUX7IS7G1YuMAPSC-25" source="5vtchUX7IS7G1YuMAPSC-26" target="5vtchUX7IS7G1YuMAPSC-66">
          <mxGeometry relative="1" as="geometry">
            <mxPoint x="554" y="440" as="sourcePoint" />
            <mxPoint x="554" y="580" as="targetPoint" />
          </mxGeometry>
        </mxCell>
        <mxCell id="5vtchUX7IS7G1YuMAPSC-66" value="Data:&lt;br&gt;List&amp;lt;DatabaseConfigModel&amp;gt;" style="text;html=1;strokeColor=none;fillColor=none;align=center;verticalAlign=middle;whiteSpace=wrap;rounded=0;" vertex="1" parent="5vtchUX7IS7G1YuMAPSC-25">
          <mxGeometry x="120" y="170" width="100" height="30" as="geometry" />
        </mxCell>
        <mxCell id="5vtchUX7IS7G1YuMAPSC-68" value="" style="edgeStyle=orthogonalEdgeStyle;rounded=0;orthogonalLoop=1;jettySize=auto;html=1;entryX=0.5;entryY=0;entryDx=0;entryDy=0;" edge="1" parent="5vtchUX7IS7G1YuMAPSC-25" source="5vtchUX7IS7G1YuMAPSC-66" target="5vtchUX7IS7G1YuMAPSC-57">
          <mxGeometry relative="1" as="geometry">
            <mxPoint x="554" y="500" as="sourcePoint" />
            <mxPoint x="223.5" y="230" as="targetPoint" />
          </mxGeometry>
        </mxCell>
        <mxCell id="5vtchUX7IS7G1YuMAPSC-70" value="Start Backups" style="rounded=0;whiteSpace=wrap;html=1;" vertex="1" parent="5vtchUX7IS7G1YuMAPSC-25">
          <mxGeometry x="270" y="340" width="140" height="80" as="geometry" />
        </mxCell>
        <mxCell id="5vtchUX7IS7G1YuMAPSC-72" value="If Data is valid" style="text;html=1;strokeColor=none;fillColor=none;align=center;verticalAlign=middle;whiteSpace=wrap;rounded=0;" vertex="1" parent="5vtchUX7IS7G1YuMAPSC-25">
          <mxGeometry x="140" y="365" width="60" height="30" as="geometry" />
        </mxCell>
        <mxCell id="5vtchUX7IS7G1YuMAPSC-73" value="" style="edgeStyle=orthogonalEdgeStyle;rounded=0;orthogonalLoop=1;jettySize=auto;html=1;entryX=0.5;entryY=0;entryDx=0;entryDy=0;exitX=0.5;exitY=1;exitDx=0;exitDy=0;" edge="1" parent="5vtchUX7IS7G1YuMAPSC-25" source="5vtchUX7IS7G1YuMAPSC-57" target="5vtchUX7IS7G1YuMAPSC-72">
          <mxGeometry relative="1" as="geometry">
            <mxPoint x="500" y="600" as="sourcePoint" />
            <mxPoint x="600" y="680" as="targetPoint" />
          </mxGeometry>
        </mxCell>
        <mxCell id="5vtchUX7IS7G1YuMAPSC-27" value="Start Application" style="text;html=1;strokeColor=none;fillColor=none;align=center;verticalAlign=middle;whiteSpace=wrap;rounded=0;" vertex="1" parent="1">
          <mxGeometry x="230" y="380" width="100" height="30" as="geometry" />
        </mxCell>
        <mxCell id="5vtchUX7IS7G1YuMAPSC-33" value="Core Layer" style="swimlane;whiteSpace=wrap;html=1;startSize=40;fillColor=#f5f5f5;strokeColor=#666666;fontColor=#333333;" vertex="1" parent="1">
          <mxGeometry x="30" y="30" width="750" height="220" as="geometry">
            <mxRectangle x="30" y="430" width="150" height="30" as="alternateBounds" />
          </mxGeometry>
        </mxCell>
        <mxCell id="5vtchUX7IS7G1YuMAPSC-38" value="Entities" style="swimlane;fontStyle=0;childLayout=stackLayout;horizontal=1;startSize=30;horizontalStack=0;resizeParent=1;resizeParentMax=0;resizeLast=0;collapsible=1;marginBottom=0;whiteSpace=wrap;html=1;fillColor=#e51400;fontColor=#ffffff;strokeColor=#B20000;" vertex="1" parent="5vtchUX7IS7G1YuMAPSC-33">
          <mxGeometry x="50" y="60" width="160" height="60" as="geometry" />
        </mxCell>
        <mxCell id="5vtchUX7IS7G1YuMAPSC-42" value="Models" style="swimlane;fontStyle=0;childLayout=stackLayout;horizontal=1;startSize=30;horizontalStack=0;resizeParent=1;resizeParentMax=0;resizeLast=0;collapsible=1;marginBottom=0;whiteSpace=wrap;html=1;fillColor=#e51400;fontColor=#ffffff;strokeColor=#B20000;" vertex="1" parent="5vtchUX7IS7G1YuMAPSC-33">
          <mxGeometry x="290" y="60" width="160" height="120" as="geometry" />
        </mxCell>
        <mxCell id="5vtchUX7IS7G1YuMAPSC-43" value="DatabaseConfigModel" style="text;strokeColor=none;fillColor=none;align=left;verticalAlign=middle;spacingLeft=4;spacingRight=4;overflow=hidden;points=[[0,0.5],[1,0.5]];portConstraint=eastwest;rotatable=0;whiteSpace=wrap;html=1;" vertex="1" parent="5vtchUX7IS7G1YuMAPSC-42">
          <mxGeometry y="30" width="160" height="30" as="geometry" />
        </mxCell>
        <mxCell id="5vtchUX7IS7G1YuMAPSC-44" value="MySqlDatabaseModel" style="text;strokeColor=none;fillColor=none;align=left;verticalAlign=middle;spacingLeft=4;spacingRight=4;overflow=hidden;points=[[0,0.5],[1,0.5]];portConstraint=eastwest;rotatable=0;whiteSpace=wrap;html=1;" vertex="1" parent="5vtchUX7IS7G1YuMAPSC-42">
          <mxGeometry y="60" width="160" height="30" as="geometry" />
        </mxCell>
        <mxCell id="5vtchUX7IS7G1YuMAPSC-62" value="PostgreSqlDatabaseModel" style="text;strokeColor=none;fillColor=none;align=left;verticalAlign=middle;spacingLeft=4;spacingRight=4;overflow=hidden;points=[[0,0.5],[1,0.5]];portConstraint=eastwest;rotatable=0;whiteSpace=wrap;html=1;" vertex="1" parent="5vtchUX7IS7G1YuMAPSC-42">
          <mxGeometry y="90" width="160" height="30" as="geometry" />
        </mxCell>
        <mxCell id="5vtchUX7IS7G1YuMAPSC-46" value="Interfaces" style="swimlane;fontStyle=0;childLayout=stackLayout;horizontal=1;startSize=30;horizontalStack=0;resizeParent=1;resizeParentMax=0;resizeLast=0;collapsible=1;marginBottom=0;whiteSpace=wrap;html=1;fillColor=#e51400;fontColor=#ffffff;strokeColor=#B20000;" vertex="1" parent="5vtchUX7IS7G1YuMAPSC-33">
          <mxGeometry x="530" y="60" width="160" height="80" as="geometry" />
        </mxCell>
        <mxCell id="5vtchUX7IS7G1YuMAPSC-48" value="IDatabase" style="text;strokeColor=none;fillColor=none;align=left;verticalAlign=top;spacingLeft=4;spacingRight=4;overflow=hidden;points=[[0,0.5],[1,0.5]];portConstraint=eastwest;rotatable=0;whiteSpace=wrap;html=1;container=1;" vertex="1" parent="5vtchUX7IS7G1YuMAPSC-46">
          <mxGeometry y="30" width="160" height="50" as="geometry">
            <mxRectangle y="30" width="160" height="30" as="alternateBounds" />
          </mxGeometry>
        </mxCell>
        <mxCell id="5vtchUX7IS7G1YuMAPSC-61" value="Task DoBackup();" style="text;strokeColor=none;fillColor=none;align=left;verticalAlign=middle;spacingLeft=4;spacingRight=4;overflow=hidden;points=[[0,0.5],[1,0.5]];portConstraint=eastwest;rotatable=0;whiteSpace=wrap;html=1;" vertex="1" parent="5vtchUX7IS7G1YuMAPSC-48">
          <mxGeometry x="20" y="25" width="110" height="16.66666666666667" as="geometry" />
        </mxCell>
        <mxCell id="5vtchUX7IS7G1YuMAPSC-37" value="" style="endArrow=classic;html=1;rounded=0;exitX=1;exitY=0.75;exitDx=0;exitDy=0;" edge="1" parent="1" source="5vtchUX7IS7G1YuMAPSC-20">
          <mxGeometry width="50" height="50" relative="1" as="geometry">
            <mxPoint x="430" y="440" as="sourcePoint" />
            <mxPoint x="330" y="413" as="targetPoint" />
          </mxGeometry>
        </mxCell>
        <mxCell id="5vtchUX7IS7G1YuMAPSC-50" value="" style="endArrow=classic;html=1;rounded=0;exitX=0.5;exitY=1;exitDx=0;exitDy=0;entryX=0.5;entryY=0;entryDx=0;entryDy=0;" edge="1" parent="1" source="5vtchUX7IS7G1YuMAPSC-20" target="5vtchUX7IS7G1YuMAPSC-22">
          <mxGeometry width="50" height="50" relative="1" as="geometry">
            <mxPoint x="430" y="440" as="sourcePoint" />
            <mxPoint x="130" y="560" as="targetPoint" />
          </mxGeometry>
        </mxCell>
        <mxCell id="5vtchUX7IS7G1YuMAPSC-56" value="Get Databases Configs" style="text;html=1;strokeColor=none;fillColor=none;align=center;verticalAlign=middle;whiteSpace=wrap;rounded=0;" vertex="1" parent="1">
          <mxGeometry x="230" y="620" width="100" height="30" as="geometry" />
        </mxCell>
        <mxCell id="5vtchUX7IS7G1YuMAPSC-74" value="Project logic scheme v 1.0" style="text;strokeColor=none;fillColor=none;html=1;fontSize=24;fontStyle=1;verticalAlign=middle;align=center;" vertex="1" parent="1">
          <mxGeometry x="364" y="-40" width="100" height="40" as="geometry" />
        </mxCell>
      </root>
    </mxGraphModel>
  </diagram>
</mxfile>
